<svg width="24" height="23" viewBox="0 0 24 23" fill="none" xmlns="http://www.w3.org/2000/svg">
<g clip-path="url(#clip0)">
<path d="M17.6308 12.6214L23.5263 10.1492C24.1907 9.87083 24.1458 8.95335 23.4569 8.73615L1.03851 1.65363C0.452009 1.46851 -0.119539 1.97029 0.0217438 2.54673L4.50163 20.8008C4.63542 21.3461 5.31923 21.5685 5.77148 21.2136L11.0355 17.0859L17.6308 12.6214Z" fill="#EBF0FA"/>
<path d="M5.41572 5.59546L17.6308 12.6213L16.1362 19.2652C16.0022 19.8613 15.269 20.124 14.7598 19.7585L11.0355 17.0858L14.0998 14.6825L5.02975 6.07132C4.76383 5.81881 5.09467 5.41079 5.41572 5.59546Z" fill="#BEC3D2"/>
<path d="M15.6434 19.8507C15.3688 19.9697 15.0323 19.9541 14.7598 19.7585L11.0355 17.0858L12.5677 15.8842L14.0998 14.6826L15.6434 19.8507Z" fill="#AFB4C8"/>
</g>
<defs>
<clipPath id="clip0">
<rect width="24" height="23" transform="matrix(-1 0 0 1 24 0)" fill="white"/>
</clipPath>
</defs>
</svg>
