<svg width="27" height="25" viewBox="0 0 27 25" fill="none" xmlns="http://www.w3.org/2000/svg">
<g clip-path="url(#clip0)">
<path d="M26.2658 15.0043C26.4547 14.1783 26.5503 13.3371 26.5503 12.5C26.5503 9.27238 25.1928 6.23798 22.7281 3.95565C20.2632 1.67332 16.986 0.416374 13.5002 0.416374C12.5977 0.416374 11.6893 0.504875 10.7957 0.67997C9.78655 0.234413 8.67027 0 7.54884 0C3.38633 0 0 3.13549 0 6.98948C0 8.02746 0.253166 9.06105 0.734367 9.99603C0.545677 10.8219 0.450096 11.6629 0.450096 12.5C0.450096 15.7276 1.80759 18.762 4.27231 21.0443C6.73702 23.3265 10.0142 24.5834 13.5002 24.5834C14.4027 24.5834 15.3109 24.4947 16.2043 24.32C17.2139 24.7656 18.3301 25 19.4516 25C23.6139 25 27 21.8645 27 18.0107C27 16.9727 26.7468 15.9391 26.2658 15.0043ZM19.4516 23.5352C18.4727 23.5352 17.5389 23.3217 16.6758 22.9006C16.5613 22.8447 16.4346 22.8161 16.3071 22.8161C16.2467 22.8161 16.1862 22.8226 16.1266 22.8355C15.2604 23.0234 14.3769 23.1186 13.5002 23.1186C7.17661 23.1186 2.03213 18.3552 2.03213 12.5C2.03213 11.6867 2.13492 10.8686 2.33782 10.0685C2.38129 9.89666 2.35636 9.71603 2.26758 9.55982C1.81254 8.76007 1.58203 7.89528 1.58203 6.98948C1.58203 3.94325 4.25871 1.46484 7.54884 1.46484C8.52773 1.46484 9.46129 1.67828 10.324 2.09923C10.4927 2.18163 10.6878 2.2047 10.8734 2.16446C11.7398 1.97659 12.6235 1.88122 13.5002 1.88122C19.8238 1.88122 24.9683 6.64482 24.9683 12.5C24.9683 13.3133 24.8655 14.1315 24.6626 14.9319C24.6189 15.1037 24.6438 15.2843 24.7326 15.4406C25.1875 16.2401 25.418 17.1047 25.418 18.0107C25.418 21.0569 22.7415 23.5352 19.4516 23.5352Z" fill="white"/>
<path d="M13.5 6.83765C15.8333 6.83765 17.8048 7.96642 17.8048 9.30252C17.8048 9.70707 18.1589 10.0349 18.5959 10.0349C19.0326 10.0349 19.3869 9.70707 19.3869 9.30252C19.3869 8.19798 18.7333 7.17983 17.5469 6.43539C16.4548 5.75008 15.0175 5.37262 13.5 5.37262C11.9824 5.37262 10.5452 5.75008 9.45303 6.43539C8.26651 7.17983 7.6131 8.19798 7.6131 9.30252C7.6131 10.4071 8.26651 11.4254 9.45303 12.1698C10.545 12.8551 11.9822 13.2324 13.5 13.2324C15.8333 13.2324 17.8048 14.3612 17.8048 15.6975C17.8048 17.0336 15.8333 18.1623 13.5 18.1623C11.1665 18.1623 9.19513 17.0336 9.19513 15.6975C9.19513 15.2929 8.84103 14.9651 8.40411 14.9651C7.96741 14.9651 7.6131 15.2929 7.6131 15.6975C7.6131 16.8018 8.26651 17.8202 9.45303 18.5646C10.5452 19.2497 11.9824 19.6272 13.5 19.6272C15.0175 19.6272 16.4548 19.2497 17.5469 18.5646C18.7333 17.8202 19.3869 16.8018 19.3869 15.6975C19.3869 14.5927 18.7333 13.5746 17.5469 12.8302C16.4548 12.145 15.0175 11.7676 13.5 11.7676C11.1665 11.7676 9.19513 10.6388 9.19513 9.30252C9.19513 7.96642 11.1665 6.83765 13.5 6.83765Z" fill="white"/>
</g>
<defs>
<clipPath id="clip0">
<rect width="27" height="25" fill="white"/>
</clipPath>
</defs>
</svg>
