<svg width="26" height="26" viewBox="0 0 26 26" fill="none" xmlns="http://www.w3.org/2000/svg">
<path d="M2.16668 3.25H23.8333C25.0283 3.25 26 4.2217 26 5.41668V20.5834C26 21.7783 25.0283 22.75 23.8333 22.75H2.16663C0.971699 22.75 0 21.7783 0 20.5833V5.41668C0 4.2217 0.971699 3.25 2.16668 3.25ZM23.8333 4.33332H2.16663C2.0868 4.33332 2.01647 4.36241 1.94157 4.37887C3.81738 6.09563 10.0373 11.7858 12.2139 13.7469C12.3842 13.9003 12.6587 14.0833 12.9999 14.0833C13.3411 14.0833 13.6157 13.9003 13.7866 13.7464C15.963 11.7856 22.1832 6.09512 24.0587 4.37897C23.9837 4.36252 23.9132 4.33332 23.8333 4.33332ZM24.9167 20.5833V5.41668C24.9167 5.31055 24.8847 5.21427 24.8561 5.11728C23.4204 6.43129 19.0804 10.4016 16.2663 12.9606C19.0713 15.37 23.4123 19.4857 24.8595 20.8657C24.885 20.7735 24.9167 20.6835 24.9167 20.5833ZM2.16668 21.6667H23.8333C23.9198 21.6667 23.9968 21.6365 24.0776 21.6172C22.5822 20.1917 18.2135 16.0523 15.4579 13.6949C15.0986 14.0208 14.7705 14.3179 14.5118 14.551C14.0653 14.9541 13.5428 15.1667 13 15.1667C12.4572 15.1667 11.9347 14.954 11.4887 14.5515C11.23 14.3183 10.9016 14.0209 10.5421 13.6949C7.78634 16.0521 3.41824 20.1911 1.92243 21.6172C2.00322 21.6365 2.08005 21.6667 2.16668 21.6667ZM1.08332 20.5833C1.08332 20.6834 1.11501 20.7735 1.1405 20.8657C2.58817 19.485 6.92875 15.3698 9.73365 12.9606C6.91945 10.4016 2.58014 6.4317 1.14395 5.11718C1.11531 5.21417 1.08332 5.3105 1.08332 5.41663V20.5833Z" fill="white"/>
</svg>
